<svg width="69" height="70" viewBox="0 0 69 70" fill="none" xmlns="http://www.w3.org/2000/svg">
<path d="M44.5 33.3333L48.41 29.7483C49.1367 29.0817 49.5 28.7483 49.5 28.3333M49.5 28.3333C49.5 27.9183 49.1367 27.585 48.41 26.9183L44.5 23.3333M49.5 28.3333C19.5 28.3333 19.5 50 19.5 50" stroke="#05001F" stroke-width="2.5" stroke-linecap="round" stroke-linejoin="round"/>
<path d="M23.6667 28.3333C25.9679 28.3333 27.8333 26.4679 27.8333 24.1667C27.8333 21.8655 25.9679 20 23.6667 20C21.3655 20 19.5 21.8655 19.5 24.1667C19.5 26.4679 21.3655 28.3333 23.6667 28.3333Z" stroke="#05001F" stroke-width="2.5" stroke-linecap="round" stroke-linejoin="round"/>
<path d="M36.1665 50L44.4998 41.6667M44.4998 50L36.1665 41.6667" stroke="#05001F" stroke-width="2.5" stroke-linecap="round" stroke-linejoin="round"/>
<path d="M60.0584 54.2005C64.3807 48.4337 66.6305 41.3751 66.4434 34.1689C66.2564 26.9627 63.6434 20.031 59.0278 14.4965C54.4122 8.962 48.0645 5.14899 41.013 3.67559C33.9616 2.2022 26.6196 3.15454 20.1765 6.37835C13.7335 9.60216 8.56697 14.9087 5.51398 21.438C2.46099 27.9672 1.70043 35.3365 3.35553 42.3523C5.01062 49.3681 8.98441 55.6193 14.633 60.0928C20.2817 64.5663 27.2742 67 34.4777 66.9999C38.9167 67.0107 43.3081 66.0838 47.3646 64.28" stroke="#05001F" stroke-width="4.025" stroke-linecap="round" stroke-linejoin="round"/>
</svg>
