<svg width="32" height="32" viewBox="0 0 32 32" fill="none" xmlns="http://www.w3.org/2000/svg">
<path d="M9.18403 0.291748H22.379C27.4056 0.291748 31.4897 4.37589 31.4897 9.40253V22.5975C31.4897 25.0138 30.5299 27.3312 28.8213 29.0398C27.1127 30.7484 24.7953 31.7083 22.379 31.7083H9.18403C4.15739 31.7083 0.0732422 27.6241 0.0732422 22.5975V9.40253C0.0732422 6.9862 1.03313 4.66884 2.74173 2.96024C4.45033 1.25163 6.7677 0.291748 9.18403 0.291748ZM8.86986 3.4334C7.37007 3.4334 5.93171 4.02919 4.8712 5.0897C3.81068 6.15021 3.21489 7.58858 3.21489 9.08837V22.9116C3.21489 26.0376 5.74392 28.5666 8.86986 28.5666H22.6931C24.1929 28.5666 25.6313 27.9708 26.6918 26.9103C27.7523 25.8498 28.3481 24.4114 28.3481 22.9116V9.08837C28.3481 5.96243 25.8191 3.4334 22.6931 3.4334H8.86986ZM24.0283 5.78964C24.5491 5.78964 25.0485 5.99651 25.4168 6.36474C25.785 6.73297 25.9919 7.23241 25.9919 7.75317C25.9919 8.27393 25.785 8.77336 25.4168 9.14159C25.0485 9.50983 24.5491 9.7167 24.0283 9.7167C23.5076 9.7167 23.0081 9.50983 22.6399 9.14159C22.2717 8.77336 22.0648 8.27393 22.0648 7.75317C22.0648 7.23241 22.2717 6.73297 22.6399 6.36474C23.0081 5.99651 23.5076 5.78964 24.0283 5.78964ZM15.7815 8.14587C17.8645 8.14587 19.8623 8.97336 21.3352 10.4463C22.8081 11.9192 23.6356 13.917 23.6356 16C23.6356 18.083 22.8081 20.0808 21.3352 21.5537C19.8623 23.0266 17.8645 23.8541 15.7815 23.8541C13.6985 23.8541 11.7007 23.0266 10.2278 21.5537C8.75485 20.0808 7.92737 18.083 7.92737 16C7.92737 13.917 8.75485 11.9192 10.2278 10.4463C11.7007 8.97336 13.6985 8.14587 15.7815 8.14587ZM15.7815 11.2875C14.5317 11.2875 13.333 11.784 12.4493 12.6678C11.5655 13.5515 11.069 14.7502 11.069 16C11.069 17.2498 11.5655 18.4485 12.4493 19.3322C13.333 20.216 14.5317 20.7125 15.7815 20.7125C17.0313 20.7125 18.23 20.216 19.1137 19.3322C19.9975 18.4485 20.494 17.2498 20.494 16C20.494 14.7502 19.9975 13.5515 19.1137 12.6678C18.23 11.784 17.0313 11.2875 15.7815 11.2875Z" fill="black"/>
</svg>
