<svg width="69" height="70" viewBox="0 0 69 70" fill="none" xmlns="http://www.w3.org/2000/svg">
<path d="M46.8125 31.6562C48.1712 31.6546 49.4738 31.1141 50.4345 30.1533C51.3953 29.1925 51.9358 27.89 51.9375 26.5312V22.6875H48.0938C46.782 22.6896 45.5214 23.1971 44.5742 24.1046C43.9108 22.8999 42.9365 21.8952 41.7527 21.1952C40.5689 20.4952 39.219 20.1257 37.8438 20.125H34V23.9688C34.0024 26.0069 34.8131 27.9608 36.2542 29.402C37.6954 30.8432 39.6494 31.6539 41.6875 31.6562H42.9688V48.3125H27.5938V41.9062H28.875C30.2337 41.9046 31.5363 41.3641 32.497 40.4033C33.4578 39.4425 33.9983 38.14 34 36.7812V32.9375H30.1562C28.8445 32.9396 27.5839 33.4471 26.6367 34.3546C25.9733 33.1499 24.999 32.1452 23.8152 31.4452C22.6314 30.7453 21.2815 30.3757 19.9062 30.375H16.0625V34.2188C16.0649 36.2569 16.8756 38.2108 18.3167 39.652C19.7579 41.0932 21.7119 41.9039 23.75 41.9062H25.0312V48.3125H16.0625V50.875H51.9375V48.3125H45.5312V31.6562H46.8125ZM45.5312 27.8125C45.5312 27.1329 45.8012 26.4811 46.2818 26.0005C46.7624 25.52 47.4141 25.25 48.0938 25.25H49.375V26.5312C49.375 27.2109 49.105 27.8626 48.6245 28.3432C48.1439 28.8238 47.4921 29.0938 46.8125 29.0938H45.5312V27.8125ZM27.5938 38.0625C27.5938 37.3829 27.8637 36.7311 28.3443 36.2505C28.8249 35.77 29.4766 35.5 30.1562 35.5H31.4375V36.7812C31.4375 37.4609 31.1675 38.1126 30.687 38.5932C30.2064 39.0738 29.5546 39.3438 28.875 39.3438H27.5938V38.0625ZM25.0312 39.3438H23.75C22.3913 39.3421 21.0887 38.8016 20.128 37.8408C19.1672 36.88 18.6267 35.5775 18.625 34.2188V32.9375H19.9062C21.265 32.9392 22.5675 33.4797 23.5283 34.4405C24.4891 35.4012 25.0296 36.7038 25.0312 38.0625V39.3438ZM42.9688 29.0938H41.6875C40.3288 29.0921 39.0262 28.5516 38.0655 27.5908C37.1047 26.63 36.5642 25.3275 36.5625 23.9688V22.6875H37.8438C39.2025 22.6892 40.505 23.2297 41.4658 24.1905C42.4266 25.1512 42.9671 26.4538 42.9688 27.8125V29.0938Z" fill="#05001F"/>
<path d="M8.89577 15.7995C4.57356 21.5663 2.32373 28.6249 2.51079 35.8311C2.69785 43.0373 5.31086 49.969 9.92644 55.5035C14.542 61.038 20.8898 64.851 27.9412 66.3244C34.9926 67.7978 42.3347 66.8455 48.7777 63.6217C55.2207 60.3978 60.3873 55.0913 63.4402 48.562C66.4932 42.0328 67.2538 34.6635 65.5987 27.6477C63.9436 20.6319 59.9698 14.3807 54.3212 9.90719C48.6725 5.4337 41.68 2.99996 34.4765 3.00009C30.0375 2.98932 25.6462 3.91616 21.5896 5.72002" stroke="#05001F" stroke-width="4.025" stroke-linecap="round" stroke-linejoin="round"/>
</svg>
