<svg width="37" height="30" viewBox="0 0 37 30" fill="none" xmlns="http://www.w3.org/2000/svg">
<path d="M36.0734 3.75342C34.7204 4.34418 33.2894 4.73688 31.8245 4.91942C33.3684 4.00297 34.5229 2.55165 35.0691 0.840416C33.6234 1.69824 32.0417 2.30229 30.3925 2.62642C29.3812 1.54608 28.0686 0.79505 26.6253 0.470882C25.182 0.146715 23.6746 0.264395 22.299 0.808636C20.9233 1.35288 19.743 2.29852 18.9114 3.52273C18.0798 4.74694 17.6353 6.19312 17.6356 7.67342C17.6298 8.23903 17.6871 8.80353 17.8065 9.35642C14.8725 9.21234 12.002 8.45024 9.38257 7.11993C6.76311 5.78963 4.45371 3.92107 2.60533 1.63642C1.65602 3.25993 1.36183 5.18485 1.78285 7.01809C2.20388 8.85132 3.30835 10.4546 4.87071 11.5004C3.70299 11.4689 2.55998 11.1568 1.53809 10.5904V10.6714C1.54004 12.3757 2.12865 14.0272 3.20484 15.3481C4.28104 16.6689 5.7791 17.5784 7.44687 17.9234C6.81594 18.0898 6.16571 18.1715 5.51325 18.1664C5.04375 18.1749 4.57469 18.1327 4.11425 18.0404C4.5912 19.5057 5.5104 20.7869 6.74526 21.7076C7.98012 22.6283 9.46987 23.1432 11.0093 23.1814C8.39871 25.2245 5.17903 26.3329 1.86486 26.3294C1.27473 26.3335 0.684941 26.2998 0.0991211 26.2284C3.47148 28.4031 7.40119 29.5534 11.413 29.5404C24.9843 29.5404 32.404 18.2904 32.404 8.54042C32.404 8.21442 32.3931 7.89942 32.3771 7.58642C33.8318 6.54428 35.0844 5.24536 36.0734 3.75342V3.75342Z" fill="#05001F"/>
</svg>
