<svg width="69" height="70" viewBox="0 0 69 70" fill="none" xmlns="http://www.w3.org/2000/svg">
<path d="M42.1127 42.3062L48.3252 36.0937C48.6752 35.7437 49.0836 35.5757 49.5502 35.5897C50.0169 35.6037 50.4252 35.7863 50.7752 36.1375C51.0961 36.4875 51.2565 36.8958 51.2565 37.3625C51.2565 37.8292 51.0961 38.2375 50.7752 38.5875L43.3815 46.025C43.0315 46.375 42.6232 46.55 42.1565 46.55C41.6898 46.55 41.2815 46.375 40.9315 46.025L37.169 42.2625C36.8482 41.9417 36.6877 41.5333 36.6877 41.0375C36.6877 40.5417 36.8482 40.1333 37.169 39.8125C37.4898 39.4917 37.8982 39.3312 38.394 39.3312C38.8898 39.3312 39.2982 39.4917 39.619 39.8125L42.1127 42.3062ZM42.1127 28.3062L48.3252 22.0937C48.6752 21.7437 49.0836 21.5757 49.5502 21.5897C50.0169 21.6037 50.4252 21.7863 50.7752 22.1375C51.0961 22.4875 51.2565 22.8958 51.2565 23.3625C51.2565 23.8292 51.0961 24.2375 50.7752 24.5875L43.3815 32.025C43.0315 32.375 42.6232 32.55 42.1565 32.55C41.6898 32.55 41.2815 32.375 40.9315 32.025L37.169 28.2625C36.8482 27.9417 36.6877 27.5333 36.6877 27.0375C36.6877 26.5417 36.8482 26.1333 37.169 25.8125C37.4898 25.4917 37.8982 25.3312 38.394 25.3312C38.8898 25.3312 39.2982 25.4917 39.619 25.8125L42.1127 28.3062ZM18.7503 43.75C18.2544 43.75 17.8391 43.582 17.5043 43.246C17.1694 42.91 17.0014 42.4947 17.0003 42C16.9991 41.5053 17.1671 41.09 17.5043 40.754C17.8414 40.418 18.2568 40.25 18.7503 40.25H31.0002C31.4961 40.25 31.912 40.418 32.248 40.754C32.584 41.09 32.7514 41.5053 32.7502 42C32.7491 42.4947 32.5811 42.9106 32.2462 43.2477C31.9114 43.5849 31.4961 43.7523 31.0002 43.75H18.7503ZM18.7503 29.75C18.2544 29.75 17.8391 29.582 17.5043 29.246C17.1694 28.91 17.0014 28.4947 17.0003 28C16.9991 27.5053 17.1671 27.09 17.5043 26.754C17.8414 26.418 18.2568 26.25 18.7503 26.25H31.0002C31.4961 26.25 31.912 26.418 32.248 26.754C32.584 27.09 32.7514 27.5053 32.7502 28C32.7491 28.4947 32.5811 28.9106 32.2462 29.2477C31.9114 29.5849 31.4961 29.7523 31.0002 29.75H18.7503Z" fill="#05001F"/>
<path d="M8.89577 15.7995C4.57356 21.5663 2.32373 28.6249 2.51079 35.8311C2.69785 43.0373 5.31086 49.969 9.92644 55.5035C14.542 61.038 20.8898 64.851 27.9412 66.3244C34.9926 67.7978 42.3347 66.8455 48.7777 63.6217C55.2207 60.3978 60.3873 55.0913 63.4402 48.562C66.4932 42.0328 67.2538 34.6635 65.5987 27.6477C63.9436 20.6319 59.9698 14.3807 54.3212 9.90719C48.6725 5.4337 41.68 2.99996 34.4765 3.00009C30.0375 2.98932 25.6462 3.91616 21.5896 5.72002" stroke="#05001F" stroke-width="4.025" stroke-linecap="round" stroke-linejoin="round"/>
</svg>
