<svg width="31" height="31" viewBox="0 0 31 31" fill="none" xmlns="http://www.w3.org/2000/svg">
<path d="M30.0909 30.2918H30.0989V19.2918C30.0989 13.9088 28.9407 9.76283 22.6532 9.76283C21.4724 9.71882 20.3018 9.9964 19.2663 10.566C18.2308 11.1355 17.3692 11.9757 16.7734 12.9968H16.6865V10.2658H10.7247V30.2908H16.9323V20.3728C16.9323 17.7618 17.4269 15.2368 20.6586 15.2368C23.8424 15.2368 23.8903 18.2168 23.8903 20.5368V30.2878L30.0909 30.2918Z" fill="#05001F"/>
<path d="M0.61499 10.2628H6.83055V30.2868H0.61499V10.2628Z" fill="#05001F"/>
<path d="M3.71775 0.291798C3.00089 0.288041 2.29908 0.497575 1.70147 0.893787C1.10385 1.29 0.637386 1.85501 0.361317 2.51707C0.085249 3.17912 0.0120327 3.90835 0.150967 4.61213C0.289901 5.31592 0.634718 5.9625 1.14162 6.46977C1.64853 6.97704 2.29465 7.3221 2.99793 7.46113C3.70121 7.60016 4.42992 7.5269 5.0915 7.25063C5.75308 6.97436 6.31769 6.50757 6.71362 5.90952C7.10955 5.31148 7.31894 4.60917 7.31518 3.8918C7.31518 2.93702 6.93617 2.02134 6.26152 1.34621C5.58687 0.671082 4.67185 0.291798 3.71775 0.291798V0.291798Z" fill="#05001F"/>
</svg>
