<svg width="69" height="70" viewBox="0 0 69 70" fill="none" xmlns="http://www.w3.org/2000/svg">
<path d="M9.39577 15.7995C5.07356 21.5663 2.82373 28.6249 3.01079 35.8311C3.19785 43.0373 5.81086 49.969 10.4264 55.5035C15.042 61.038 21.3898 64.851 28.4412 66.3244C35.4926 67.7978 42.8347 66.8455 49.2777 63.6217C55.7207 60.3978 60.8873 55.0913 63.9402 48.562C66.9932 42.0328 67.7538 34.6635 66.0987 27.6477C64.4436 20.6319 60.4698 14.3807 54.8212 9.90719C49.1725 5.4337 42.18 2.99996 34.9765 3.00009C30.5375 2.98932 26.1462 3.91616 22.0896 5.72002" stroke="#292D32" stroke-width="4.025" stroke-linecap="round" stroke-linejoin="round"/>
<g clip-path="url(#clip0_1708_3601)">
<path d="M30.9085 35C30.9084 31.6777 32.2235 28.4904 34.5663 26.1348C36.9091 23.7792 40.0891 22.4467 43.4113 22.4286C41.1636 21.0128 38.5773 20.2257 35.922 20.149C33.2667 20.0724 30.6393 20.7091 28.3137 21.9928C25.988 23.2766 24.049 25.1604 22.6988 27.448C21.3485 29.7357 20.6362 32.3436 20.6362 35C20.6362 37.6564 21.3485 40.2643 22.6988 42.552C24.049 44.8396 25.988 46.7234 28.3137 48.0072C30.6393 49.2909 33.2667 49.9276 35.922 49.851C38.5773 49.7743 41.1636 48.9871 43.4113 47.5714C40.0891 47.5533 36.9091 46.2208 34.5663 43.8652C32.2235 41.5095 30.9084 38.3223 30.9085 35Z" stroke="black" stroke-width="2.28571" stroke-linecap="round" stroke-linejoin="round"/>
<path d="M43.1601 28.2343L45.2401 32.3714H49.3772L46.2687 35.5714L47.2515 40.1429L43.1601 37.8571L39.2515 40.1429L40.0744 35.5714L36.9658 32.3714H41.103L43.1601 28.2343Z" stroke="black" stroke-width="2.28571" stroke-linecap="round" stroke-linejoin="round"/>
</g>
<defs>
<clipPath id="clip0_1708_3601">
<rect width="32" height="32" fill="white" transform="translate(19 19)"/>
</clipPath>
</defs>
</svg>
