<svg width="69" height="70" viewBox="0 0 69 70" fill="none" xmlns="http://www.w3.org/2000/svg">
<g clip-path="url(#clip0_1588_684)">
<path d="M47.7899 24.2901C48.7339 23.3461 48.7339 21.813 47.7899 20.869C46.8459 19.925 45.3128 19.925 44.3688 20.869L20.2021 45.0357C19.2581 45.9797 19.2581 47.5128 20.2021 48.4568C21.1462 49.4008 22.6792 49.4008 23.6232 48.4568L47.7899 24.2901ZM29.1665 25C29.1665 23.7181 28.6572 22.4888 27.7508 21.5823C26.8444 20.6759 25.615 20.1667 24.3331 20.1667C23.0513 20.1667 21.8219 20.6759 20.9155 21.5823C20.009 22.4888 19.4998 23.7181 19.4998 25C19.4998 26.2819 20.009 27.5113 20.9155 28.4177C21.8219 29.3241 23.0513 29.8333 24.3331 29.8333C25.615 29.8333 26.8444 29.3241 27.7508 28.4177C28.6572 27.5113 29.1665 26.2819 29.1665 25ZM48.4998 44.3333C48.4998 43.0515 47.9906 41.8221 47.0842 40.9157C46.1777 40.0092 44.9484 39.5 43.6665 39.5C42.3846 39.5 41.1552 40.0092 40.2488 40.9157C39.3424 41.8221 38.8331 43.0515 38.8331 44.3333C38.8331 45.6152 39.3424 46.8446 40.2488 47.751C41.1552 48.6575 42.3846 49.1667 43.6665 49.1667C44.9484 49.1667 46.1777 48.6575 47.0842 47.751C47.9906 46.8446 48.4998 45.6152 48.4998 44.3333Z" fill="#05001F"/>
</g>
<path d="M8.89577 15.7995C4.57356 21.5663 2.32373 28.6249 2.51079 35.8311C2.69785 43.0373 5.31086 49.969 9.92644 55.5035C14.542 61.038 20.8898 64.851 27.9412 66.3244C34.9926 67.7978 42.3347 66.8455 48.7777 63.6217C55.2207 60.3978 60.3873 55.0913 63.4402 48.562C66.4932 42.0328 67.2538 34.6635 65.5987 27.6477C63.9436 20.6319 59.9698 14.3807 54.3212 9.90719C48.6725 5.4337 41.68 2.99996 34.4765 3.00009C30.0375 2.98932 25.6462 3.91616 21.5896 5.72002" stroke="#05001F" stroke-width="4.025" stroke-linecap="round" stroke-linejoin="round"/>
<defs>
<clipPath id="clip0_1588_684">
<rect width="29" height="38.6667" fill="white" transform="translate(19.5 15.3334)"/>
</clipPath>
</defs>
</svg>
