<svg width="69" height="70" viewBox="0 0 69 70" fill="none" xmlns="http://www.w3.org/2000/svg">
<path d="M21.6508 49.2266C23.8474 51.6666 27.3841 51.6666 34.4541 51.6666C41.5241 51.6666 45.0608 51.6666 47.2574 49.225C49.4541 46.7866 49.4541 42.8566 49.4541 35C49.4541 27.1433 49.4541 23.215 47.2574 20.7733C45.0608 18.3316 41.5241 18.3333 34.4541 18.3333C27.3841 18.3333 23.8474 18.3333 21.6508 20.7733C19.4541 23.2166 19.4541 27.1433 19.4541 35C19.4541 42.8566 19.4541 46.7866 21.6508 49.2266Z" stroke="#05001F" stroke-width="2.5"/>
<path d="M26.1205 28.3333C26.1205 27.5583 26.1205 27.1717 26.2055 26.8533C26.3191 26.4298 26.5422 26.0436 26.8523 25.7335C27.1624 25.4234 27.5486 25.2003 27.9722 25.0867C28.2938 25 28.6805 25 29.4538 25H39.4538C40.2288 25 40.6155 25 40.9338 25.085C41.3574 25.1987 41.7436 25.4217 42.0537 25.7318C42.3638 26.0419 42.5868 26.4281 42.7005 26.8517C42.7871 27.1733 42.7871 27.56 42.7871 28.3333C42.7871 29.1067 42.7871 29.495 42.7021 29.8133C42.5885 30.2369 42.3654 30.6231 42.0553 30.9332C41.7452 31.2433 41.359 31.4663 40.9355 31.58C40.6155 31.6667 40.2271 31.6667 39.4538 31.6667H29.4538C28.6788 31.6667 28.2922 31.6667 27.9738 31.5817C27.5503 31.468 27.1641 31.2449 26.854 30.9349C26.5439 30.6248 26.3208 30.2386 26.2072 29.815C26.1205 29.4933 26.1205 29.1067 26.1205 28.3333Z" stroke="#05001F" stroke-width="2.5"/>
<path d="M27.7872 38.3333C28.7076 38.3333 29.4538 37.5871 29.4538 36.6667C29.4538 35.7462 28.7076 35 27.7872 35C26.8667 35 26.1205 35.7462 26.1205 36.6667C26.1205 37.5871 26.8667 38.3333 27.7872 38.3333Z" fill="#05001F"/>
<path d="M27.7872 45C28.7076 45 29.4538 44.2538 29.4538 43.3333C29.4538 42.4128 28.7076 41.6666 27.7872 41.6666C26.8667 41.6666 26.1205 42.4128 26.1205 43.3333C26.1205 44.2538 26.8667 45 27.7872 45Z" fill="#05001F"/>
<path d="M34.4544 38.3333C35.3749 38.3333 36.1211 37.5871 36.1211 36.6667C36.1211 35.7462 35.3749 35 34.4544 35C33.5339 35 32.7877 35.7462 32.7877 36.6667C32.7877 37.5871 33.5339 38.3333 34.4544 38.3333Z" fill="#05001F"/>
<path d="M34.4544 45C35.3749 45 36.1211 44.2538 36.1211 43.3333C36.1211 42.4128 35.3749 41.6666 34.4544 41.6666C33.5339 41.6666 32.7877 42.4128 32.7877 43.3333C32.7877 44.2538 33.5339 45 34.4544 45Z" fill="#05001F"/>
<path d="M41.1208 38.3333C42.0412 38.3333 42.7874 37.5871 42.7874 36.6667C42.7874 35.7462 42.0412 35 41.1208 35C40.2003 35 39.4541 35.7462 39.4541 36.6667C39.4541 37.5871 40.2003 38.3333 41.1208 38.3333Z" fill="#05001F"/>
<path d="M41.1208 45C42.0412 45 42.7874 44.2538 42.7874 43.3333C42.7874 42.4128 42.0412 41.6666 41.1208 41.6666C40.2003 41.6666 39.4541 42.4128 39.4541 43.3333C39.4541 44.2538 40.2003 45 41.1208 45Z" fill="#05001F"/>
<path d="M8.89577 15.7995C4.57356 21.5663 2.32373 28.6249 2.51079 35.8311C2.69785 43.0373 5.31086 49.969 9.92644 55.5035C14.542 61.038 20.8898 64.851 27.9412 66.3244C34.9926 67.7978 42.3347 66.8455 48.7777 63.6217C55.2207 60.3978 60.3873 55.0913 63.4402 48.562C66.4932 42.0328 67.2538 34.6635 65.5987 27.6477C63.9436 20.6319 59.9698 14.3807 54.3212 9.90719C48.6725 5.4337 41.68 2.99996 34.4765 3.00009C30.0375 2.98932 25.6462 3.91616 21.5896 5.72002" stroke="#05001F" stroke-width="4.025" stroke-linecap="round" stroke-linejoin="round"/>
</svg>
