<svg width="69" height="70" viewBox="0 0 69 70" fill="none" xmlns="http://www.w3.org/2000/svg">
<path d="M49.9185 48.8316L42.6837 41.5938C44.8529 38.767 45.8657 35.2209 45.5165 31.6749C45.1674 28.1288 43.4824 24.8484 40.8035 22.499C38.1246 20.1496 34.6524 18.9071 31.0911 19.0237C27.5298 19.1402 24.1462 20.607 21.6267 23.1266C19.1071 25.6461 17.6403 29.0297 17.5238 32.591C17.4072 36.1523 18.6496 39.6245 20.9991 42.3034C23.3485 44.9823 26.6289 46.6673 30.175 47.0164C33.721 47.3656 37.2671 46.3528 40.0938 44.1836L47.3347 51.426C47.5048 51.5961 47.7067 51.731 47.9289 51.823C48.151 51.915 48.3892 51.9624 48.6297 51.9624C48.8702 51.9624 49.1083 51.915 49.3305 51.823C49.5527 51.731 49.7545 51.5961 49.9246 51.426C50.0946 51.256 50.2295 51.0541 50.3216 50.8319C50.4136 50.6097 50.461 50.3716 50.461 50.1311C50.461 49.8906 50.4136 49.6525 50.3216 49.4303C50.2295 49.2081 50.0946 49.0062 49.9246 48.8362L49.9185 48.8316ZM21.2032 33.0625C21.2032 31.0136 21.8108 29.0107 22.9491 27.3071C24.0874 25.6036 25.7053 24.2758 27.5982 23.4917C29.4912 22.7076 31.5741 22.5025 33.5836 22.9022C35.5931 23.3019 37.439 24.2885 38.8878 25.7373C40.3366 27.1861 41.3232 29.032 41.7229 31.0415C42.1226 33.051 41.9175 35.1339 41.1334 37.0269C40.3493 38.9198 39.0215 40.5377 37.318 41.676C35.6144 42.8143 33.6115 43.4219 31.5626 43.4219C28.816 43.4191 26.1827 42.3267 24.2405 40.3846C22.2984 38.4424 21.206 35.8091 21.2032 33.0625Z" fill="#05001F"/>
<path d="M8.89577 15.7995C4.57356 21.5663 2.32373 28.6249 2.51079 35.8311C2.69785 43.0373 5.31086 49.969 9.92644 55.5035C14.542 61.038 20.8898 64.851 27.9412 66.3244C34.9926 67.7978 42.3347 66.8455 48.7777 63.6217C55.2207 60.3978 60.3873 55.0913 63.4402 48.562C66.4932 42.0328 67.2538 34.6635 65.5987 27.6477C63.9436 20.6319 59.9698 14.3807 54.3212 9.90719C48.6725 5.4337 41.68 2.99996 34.4765 3.00009C30.0375 2.98932 25.6462 3.91616 21.5896 5.72002" stroke="#05001F" stroke-width="4.025" stroke-linecap="round" stroke-linejoin="round"/>
</svg>
