<svg width="69" height="70" viewBox="0 0 69 70" fill="none" xmlns="http://www.w3.org/2000/svg">
<path d="M9.39577 15.7995C5.07356 21.5663 2.82373 28.6249 3.01079 35.8311C3.19785 43.0373 5.81086 49.969 10.4264 55.5035C15.042 61.038 21.3898 64.851 28.4412 66.3244C35.4926 67.7978 42.8347 66.8455 49.2777 63.6217C55.7207 60.3978 60.8873 55.0913 63.9402 48.562C66.9932 42.0328 67.7538 34.6635 66.0987 27.6477C64.4436 20.6319 60.4698 14.3807 54.8212 9.90719C49.1725 5.4337 42.18 2.99996 34.9765 3.00009C30.5375 2.98932 26.1462 3.91616 22.0896 5.72002" stroke="#292D32" stroke-width="4.025" stroke-linecap="round" stroke-linejoin="round"/>
<path d="M43.6194 27.2868L44.0315 27.6988C47.2368 30.9059 48.8385 32.5077 48.8385 34.5C48.8385 36.4923 47.2368 38.0959 44.0315 41.3012L43.6194 41.7132M37.861 21.9583L31.1405 47.0417M25.3803 27.2868L24.9682 27.6988C21.7647 30.9059 20.1611 32.5077 20.1611 34.5C20.1611 36.4923 21.7647 38.0959 24.9718 41.3012L25.3838 41.7132" stroke="black" stroke-width="2.6875" stroke-linecap="round" stroke-linejoin="round"/>
</svg>
