<svg width="69" height="70" viewBox="0 0 69 70" fill="none" xmlns="http://www.w3.org/2000/svg">
<path d="M9.39577 15.7995C5.07356 21.5663 2.82373 28.6249 3.01079 35.8311C3.19785 43.0373 5.81086 49.969 10.4264 55.5035C15.042 61.038 21.3898 64.851 28.4412 66.3244C35.4926 67.7978 42.8347 66.8455 49.2777 63.6217C55.7207 60.3978 60.8873 55.0913 63.9402 48.562C66.9932 42.0328 67.7538 34.6635 66.0987 27.6477C64.4436 20.6319 60.4698 14.3807 54.8212 9.90719C49.1725 5.4337 42.18 2.99996 34.9765 3.00009C30.5375 2.98932 26.1462 3.91616 22.0896 5.72002" stroke="#292D32" stroke-width="4.025" stroke-linecap="round" stroke-linejoin="round"/>
<path d="M29.3801 24.25C29.3801 22.8921 29.9195 21.5899 30.8797 20.6297C31.8399 19.6695 33.1421 19.1301 34.5 19.1301C35.8579 19.1301 37.1601 19.6695 38.1203 20.6297C39.0805 21.5899 39.6199 22.8921 39.6199 24.25C39.6199 25.6079 39.0805 26.9101 38.1203 27.8703C37.1601 28.8305 35.8579 29.3699 34.5 29.3699C33.1421 29.3699 31.8399 28.8305 30.8797 27.8703C29.9195 26.9101 29.3801 25.6079 29.3801 24.25ZM34.5 21.6926C34.1642 21.6926 33.8316 21.7588 33.5213 21.8873C33.2111 22.0158 32.9291 22.2042 32.6917 22.4417C32.4542 22.6791 32.2658 22.9611 32.1373 23.2713C32.0088 23.5816 31.9426 23.9142 31.9426 24.25C31.9426 24.5858 32.0088 24.9184 32.1373 25.2287C32.2658 25.5389 32.4542 25.8209 32.6917 26.0583C32.9291 26.2958 33.2111 26.4842 33.5213 26.6127C33.8316 26.7412 34.1642 26.8074 34.5 26.8074C35.1783 26.8074 35.8287 26.5379 36.3083 26.0583C36.7879 25.5787 37.0574 24.9283 37.0574 24.25C37.0574 23.5718 36.7879 22.9213 36.3083 22.4417C35.8287 21.9621 35.1783 21.6926 34.5 21.6926ZM42.1875 25.5313C42.1875 25.0265 42.2869 24.5267 42.4801 24.0603C42.6733 23.594 42.9564 23.1702 43.3133 22.8133C43.6702 22.4564 44.094 22.1733 44.5603 21.9801C45.0267 21.7869 45.5265 21.6875 46.0312 21.6875C46.536 21.6875 47.0358 21.7869 47.5022 21.9801C47.9685 22.1733 48.3923 22.4564 48.7492 22.8133C49.1061 23.1702 49.3892 23.594 49.5824 24.0603C49.7756 24.5267 49.875 25.0265 49.875 25.5313C49.875 26.5507 49.47 27.5284 48.7492 28.2492C48.0283 28.97 47.0507 29.375 46.0312 29.375C45.0118 29.375 44.0342 28.97 43.3133 28.2492C42.5925 27.5284 42.1875 26.5507 42.1875 25.5313ZM46.0312 24.25C45.6914 24.25 45.3655 24.385 45.1253 24.6253C44.885 24.8656 44.75 25.1915 44.75 25.5313C44.75 25.8711 44.885 26.197 45.1253 26.4372C45.3655 26.6775 45.6914 26.8125 46.0312 26.8125C46.3711 26.8125 46.697 26.6775 46.9372 26.4372C47.1775 26.197 47.3125 25.8711 47.3125 25.5313C47.3125 25.1915 47.1775 24.8656 46.9372 24.6253C46.697 24.385 46.3711 24.25 46.0312 24.25ZM22.9688 21.6875C21.9493 21.6875 20.9717 22.0925 20.2508 22.8133C19.53 23.5342 19.125 24.5118 19.125 25.5313C19.125 26.5507 19.53 27.5284 20.2508 28.2492C20.9717 28.97 21.9493 29.375 22.9688 29.375C23.9882 29.375 24.9658 28.97 25.6867 28.2492C26.4075 27.5284 26.8125 26.5507 26.8125 25.5313C26.8125 24.5118 26.4075 23.5342 25.6867 22.8133C24.9658 22.0925 23.9882 21.6875 22.9688 21.6875ZM21.6875 25.5313C21.6875 25.1915 21.8225 24.8656 22.0628 24.6253C22.3031 24.385 22.6289 24.25 22.9688 24.25C23.3086 24.25 23.6344 24.385 23.8747 24.6253C24.115 24.8656 24.25 25.1915 24.25 25.5313C24.25 25.8711 24.115 26.197 23.8747 26.4372C23.6344 26.6775 23.3086 26.8125 22.9688 26.8125C22.6289 26.8125 22.3031 26.6775 22.0628 26.4372C21.8225 26.197 21.6875 25.8711 21.6875 25.5313ZM24.9368 31.9375C24.4869 32.7166 24.25 33.6004 24.25 34.5H19.125V40.9063C19.1248 41.5437 19.2831 42.1711 19.5857 42.7321C19.8882 43.2931 20.3255 43.77 20.8582 44.12C21.391 44.47 22.0023 44.682 22.6374 44.737C23.2724 44.7919 23.9111 44.6881 24.496 44.4348C24.6856 45.283 24.9829 46.0928 25.3673 46.8487C24.3947 47.2414 23.3406 47.3893 22.2975 47.2794C21.2544 47.1695 20.2543 46.8052 19.3849 46.2184C18.5156 45.6317 17.8036 44.8404 17.3114 43.9142C16.8193 42.988 16.5622 41.9551 16.5625 40.9063V34.5C16.5625 33.8204 16.8325 33.1686 17.313 32.6881C17.7936 32.2075 18.4454 31.9375 19.125 31.9375H24.9368ZM43.6328 46.8487C44.6053 47.2414 45.6594 47.3893 46.7025 47.2794C47.7456 47.1695 48.7457 46.8052 49.6151 46.2184C50.4844 45.6317 51.1964 44.8404 51.6886 43.9142C52.1807 42.988 52.4378 41.9551 52.4375 40.9063V34.5C52.4375 33.8204 52.1675 33.1686 51.687 32.6881C51.2064 32.2075 50.5546 31.9375 49.875 31.9375H44.0633C44.4989 32.6909 44.75 33.5647 44.75 34.5H49.875V40.9063C49.8752 41.5437 49.7169 42.1711 49.4143 42.7321C49.1118 43.2931 48.6745 43.77 48.1418 44.12C47.609 44.47 46.9977 44.682 46.3626 44.737C45.7276 44.7919 45.0889 44.6881 44.504 44.4348C44.3093 45.2856 44.0188 46.0902 43.6328 46.8487ZM29.375 31.9349C28.6954 31.9349 28.0436 32.2049 27.563 32.6855C27.0825 33.166 26.8125 33.8178 26.8125 34.4974V42.1875C26.8125 44.2264 27.6224 46.1817 29.0641 47.6234C30.5058 49.0651 32.4611 49.875 34.5 49.875C36.5389 49.875 38.4942 49.0651 39.9359 47.6234C41.3776 46.1817 42.1875 44.2264 42.1875 42.1875V34.5C42.1875 33.8204 41.9175 33.1686 41.437 32.6881C40.9564 32.2075 40.3046 31.9375 39.625 31.9375L29.375 31.9349ZM29.375 34.4974H39.625V42.1875C39.625 43.5467 39.085 44.8503 38.1239 45.8114C37.1628 46.7726 35.8592 47.3125 34.5 47.3125C33.1408 47.3125 31.8372 46.7726 30.8761 45.8114C29.915 44.8503 29.375 43.5467 29.375 42.1875V34.4974Z" fill="black"/>
</svg>
