<svg width="69" height="70" viewBox="0 0 69 70" fill="none" xmlns="http://www.w3.org/2000/svg">
<path d="M9.39577 15.7995C5.07356 21.5663 2.82373 28.6249 3.01079 35.8311C3.19785 43.0373 5.81086 49.969 10.4264 55.5035C15.042 61.038 21.3898 64.851 28.4412 66.3244C35.4926 67.7978 42.8347 66.8455 49.2777 63.6217C55.7207 60.3978 60.8873 55.0913 63.9402 48.562C66.9932 42.0328 67.7538 34.6635 66.0987 27.6477C64.4436 20.6319 60.4698 14.3807 54.8212 9.90719C49.1725 5.4337 42.18 2.99996 34.9765 3.00009C30.5375 2.98932 26.1462 3.91616 22.0896 5.72002" stroke="#292D32" stroke-width="4.025" stroke-linecap="round" stroke-linejoin="round"/>
<path d="M32.888 31.4453C35.7013 34.2587 39.408 37.1173 39.408 37.1173L44.4853 32.0373C44.4853 32.0373 41.6267 28.3307 38.816 25.5173C36 22.7067 32.2933 19.8453 32.2933 19.8453L27.216 24.9253C27.216 24.9253 30.0747 28.632 32.888 31.4453ZM32.888 31.4453L24 40.3333M45.3333 31.1893L38.56 37.9627M33.1467 19L26.3733 25.7733M24 51H45.3333" stroke="black" stroke-width="4" stroke-linecap="round" stroke-linejoin="round"/>
</svg>
