<svg width="69" height="70" viewBox="0 0 69 70" fill="none" xmlns="http://www.w3.org/2000/svg">
<path d="M45 33.3333L48.91 29.7483C49.6367 29.0817 50 28.7483 50 28.3333M50 28.3333C50 27.9183 49.6367 27.585 48.91 26.9183L45 23.3333M50 28.3333C20 28.3333 20 50 20 50" stroke="black" stroke-width="2.5" stroke-linecap="round" stroke-linejoin="round"/>
<path d="M24.1667 28.3333C26.4679 28.3333 28.3333 26.4679 28.3333 24.1667C28.3333 21.8655 26.4679 20 24.1667 20C21.8655 20 20 21.8655 20 24.1667C20 26.4679 21.8655 28.3333 24.1667 28.3333Z" stroke="black" stroke-width="2.5" stroke-linecap="round" stroke-linejoin="round"/>
<path d="M36.6665 50L44.9998 41.6667M44.9998 50L36.6665 41.6667" stroke="black" stroke-width="2.5" stroke-linecap="round" stroke-linejoin="round"/>
<path d="M9.39577 15.7995C5.07356 21.5663 2.82373 28.6249 3.01079 35.8311C3.19785 43.0373 5.81086 49.969 10.4264 55.5035C15.042 61.038 21.3898 64.851 28.4412 66.3244C35.4926 67.7978 42.8347 66.8455 49.2777 63.6217C55.7207 60.3978 60.8873 55.0913 63.9402 48.562C66.9932 42.0328 67.7538 34.6635 66.0987 27.6477C64.4436 20.6319 60.4698 14.3807 54.8212 9.90719C49.1725 5.4337 42.18 2.99996 34.9765 3.00009C30.5375 2.98932 26.1462 3.91616 22.0896 5.72002" stroke="#292D32" stroke-width="4.025" stroke-linecap="round" stroke-linejoin="round"/>
</svg>
